<svg width="261" height="90" viewBox="0 0 261 90" fill="none" xmlns="http://www.w3.org/2000/svg">
<rect width="81" height="90" fill="white"/>
<path d="M34 45.5C34 42.7152 35.2643 40.0445 37.5147 38.0754C39.7652 36.1062 42.8174 35 46 35C49.1826 35 52.2348 36.1062 54.4853 38.0754C56.7357 40.0445 58 42.7152 58 45.5C58 48.2848 56.7357 50.9555 54.4853 52.9246C52.2348 54.8938 49.1826 56 46 56C42.8174 56 39.7652 54.8938 37.5147 52.9246C35.2643 50.9555 34 48.2848 34 45.5V45.5Z" stroke="#1E1E1E" stroke-width="5"/>
<path d="M10 66.5C10 63.7152 11.2643 61.0445 13.5147 59.0754C15.7652 57.1062 18.8174 56 22 56H34V66.5C34 69.2848 32.7357 71.9555 30.4853 73.9246C28.2348 75.8938 25.1826 77 22 77C18.8174 77 15.7652 75.8938 13.5147 73.9246C11.2643 71.9555 10 69.2848 10 66.5Z" stroke="#1E1E1E" stroke-width="5"/>
<path d="M34 14V35H46C49.1826 35 52.2348 33.8938 54.4853 31.9246C56.7357 29.9555 58 27.2848 58 24.5C58 21.7152 56.7357 19.0445 54.4853 17.0754C52.2348 15.1062 49.1826 14 46 14H34Z" stroke="#1E1E1E" stroke-width="5"/>
<path d="M10 24.5C10 27.2848 11.2643 29.9555 13.5147 31.9246C15.7652 33.8938 18.8174 35 22 35H34V14H22C18.8174 14 15.7652 15.1062 13.5147 17.0754C11.2643 19.0445 10 21.7152 10 24.5Z" stroke="#1E1E1E" stroke-width="5"/>
<path d="M10 45.5C10 48.2848 11.2643 50.9555 13.5147 52.9246C15.7652 54.8938 18.8174 56 22 56H34V35H22C18.8174 35 15.7652 36.1062 13.5147 38.0754C11.2643 40.0445 10 42.7152 10 45.5Z" stroke="#1E1E1E" stroke-width="5"/>
<rect width="180" height="90" transform="translate(81)" fill="white"/>
<path d="M86.1539 21V65.9723L91.9238 65.9946V44.5792H105.794V38.9131H91.9016V26.6438H109.988V21H86.1539ZM120.329 30.1462C121.33 30.1462 122.289 29.7466 122.997 29.0354C123.704 28.3242 124.102 27.3596 124.102 26.3538C124.102 25.3481 123.704 24.3835 122.997 23.6723C122.289 22.9611 121.33 22.5615 120.329 22.5615C119.329 22.5615 118.369 22.9611 117.662 23.6723C116.954 24.3835 116.557 25.3481 116.557 26.3538C116.557 27.3596 116.954 28.3242 117.662 29.0354C118.369 29.7466 119.329 30.1462 120.329 30.1462V30.1462ZM117.422 35.79V65.9946H123.192V35.79H117.422V35.79Z" fill="black"/>
<path fill-rule="evenodd" clip-rule="evenodd" d="M144.518 34.92C136.884 34.92 131.558 41.4115 131.558 49.13C131.558 56.8484 136.884 63.34 144.518 63.34C148.025 63.34 150.91 62.0015 153.018 59.7707V63.7861C153.032 64.9859 152.81 66.1767 152.364 67.2897C151.919 68.4027 151.258 69.4158 150.42 70.2704C149.582 71.1251 148.584 71.8043 147.483 72.2688C146.383 72.7334 145.202 72.974 144.008 72.9769C142.166 72.9769 140.346 72.2631 138.904 71.2369L136.019 76.2561C138.25 77.7056 140.828 78.523 143.483 78.6221C146.137 78.7211 148.769 78.0982 151.1 76.819C153.432 75.5398 155.377 73.6517 156.73 71.3539C158.083 69.0562 158.794 66.4339 158.788 63.7638V35.8123H153.018V38.5115C150.91 36.2808 148.025 34.9423 144.518 34.9423V34.92ZM137.306 49.13C137.306 44.3338 140.945 40.5638 145.162 40.5638C149.378 40.5638 152.996 44.3561 152.996 49.13C152.996 53.9261 149.356 57.6738 145.162 57.6738C140.945 57.6738 137.306 53.9261 137.306 49.13V49.13Z" fill="black"/>
<path d="M179.515 40.5638C177.865 40.5931 176.292 41.2742 175.138 42.4598C173.983 43.6454 173.339 45.2402 173.346 46.8992V65.9946H167.576V35.79H173.346V38.5561C174.209 37.4061 175.33 36.4772 176.618 35.8454C177.906 35.2135 179.325 34.8964 180.758 34.92C184.797 34.92 187.903 36.9277 189.679 40.0061C190.669 38.4629 192.025 37.1905 193.624 36.3029C195.224 35.4153 197.017 34.9402 198.844 34.92C205.39 34.92 209.496 40.2292 209.496 46.81V65.9946H203.77V46.8769C203.777 45.2179 203.133 43.6231 201.978 42.4375C200.824 41.2519 199.251 40.5708 197.601 40.5415C195.951 40.5708 194.379 41.2519 193.224 42.4375C192.07 43.6231 191.426 45.2179 191.432 46.8769V65.9723H185.662V46.8769C185.668 45.2217 185.027 43.6302 183.878 42.4452C182.728 41.2602 181.161 40.5766 179.515 40.5415V40.5638Z" fill="black"/>
<path fill-rule="evenodd" clip-rule="evenodd" d="M240.187 39.2254C238.877 37.852 237.302 36.7619 235.558 36.0216C233.814 35.2813 231.938 34.9064 230.046 34.92C221.479 34.92 215.399 42.1923 215.399 50.8923C215.399 59.5923 221.479 66.8646 230.046 66.8646C231.938 66.8743 233.812 66.4977 235.556 65.7576C237.299 65.0175 238.875 63.9294 240.187 62.5592V65.9946H245.935V35.79H240.165V39.2254H240.187ZM221.147 50.8923C221.147 45.1369 225.541 40.5638 230.667 40.5638C235.771 40.5638 240.187 45.1369 240.187 50.8923C240.187 56.6477 235.793 61.1985 230.667 61.1985C225.563 61.1985 221.147 56.6477 221.147 50.8923V50.8923Z" fill="black"/>
</svg>
